<svg id="Layer_1" data-name="Layer 1" xmlns="http://www.w3.org/2000/svg" viewBox="0 0 61.17 70"><defs><style>.cls-1{fill:#fff;}.cls-2{fill:#f5b700;}.cls-3{fill:#f37b00;}.cls-4{fill:#eaedef;}</style></defs><title>Icon_Church</title><path class="cls-1" d="M55.36,35.15,34,20.31a5.62,5.62,0,0,0-1-.51V13.72h2a2.38,2.38,0,1,0,0-4.76H33V6.36a2.38,2.38,0,1,0-4.76,0V9h-2a2.38,2.38,0,1,0,0,4.76h2V19.8a5.86,5.86,0,0,0-1,.52L5.81,35.15A4.32,4.32,0,0,0,5.55,42a4.22,4.22,0,0,0,3.9.79V61.58A4.44,4.44,0,0,0,13.89,66H47.28a4.44,4.44,0,0,0,4.44-4.44V42.79A4.25,4.25,0,0,0,55.63,42a4.31,4.31,0,0,0-.27-6.85Z"/><path class="cls-1" d="M47.28,70H13.89a8.43,8.43,0,0,1-8.42-8.42V46.47A7.69,7.69,0,0,1,3,45.05a8.29,8.29,0,0,1,.54-13.16L24.22,17.55v-.17a6.37,6.37,0,0,1,.1-12.11,6.36,6.36,0,0,1,12.54,0A6.36,6.36,0,0,1,37,17.38v.17L57.64,31.89a8.3,8.3,0,0,1,.55,13.16,8.1,8.1,0,0,1-2.48,1.42V61.58A8.44,8.44,0,0,1,47.28,70Z"/><path d="M55.36,35.15,34,20.31a5.62,5.62,0,0,0-1-.51V13.72h2a2.38,2.38,0,1,0,0-4.76H33V6.36a2.38,2.38,0,1,0-4.76,0V9h-2a2.38,2.38,0,1,0,0,4.76h2V19.8a5.86,5.86,0,0,0-1,.52L5.81,35.15A4.32,4.32,0,0,0,5.55,42a4.22,4.22,0,0,0,3.9.79V61.58A4.44,4.44,0,0,0,13.89,66H47.28a4.44,4.44,0,0,0,4.44-4.44V42.79A4.25,4.25,0,0,0,55.63,42a4.31,4.31,0,0,0-.27-6.85Z"/><path class="cls-2" d="M18.2,43.48c-1.38,0-2.5,2.54-2.5,3.92V58.13a.58.58,0,0,0,.57.57h3.86a.58.58,0,0,0,.57-.57V47.4c0-1.38-1.12-3.92-2.5-3.92Z"/><path class="cls-2" d="M44.9,58.7a.57.57,0,0,0,.57-.57V47.4c0-1.38-1.12-3.92-2.49-3.92h0c-1.37,0-2.5,2.54-2.5,3.92V58.13a.58.58,0,0,0,.57.57Z"/><path class="cls-3" d="M55.27,38.58a2.38,2.38,0,0,0-1-1.86L32.87,21.9a4.12,4.12,0,0,0-4.58,0L6.91,36.72a2.39,2.39,0,0,0-.13,3.81,2.46,2.46,0,0,0,3,0l19-13.3a3.2,3.2,0,0,1,3.69,0l19,13.3a2.49,2.49,0,0,0,3,0A2.42,2.42,0,0,0,55.27,38.58Z"/><path class="cls-3" d="M30.59,42.89c-2.65,0-4.81,4.28-4.81,6.93V64.1h9.61V49.82C35.39,47.17,33.24,42.89,30.59,42.89Z"/><path class="cls-2" d="M26.23,12.32h3.38v7.44a5.38,5.38,0,0,1,2,0V12.32h3.37a1,1,0,1,0,0-2H31.57v-4a1,1,0,1,0-2,0v4H26.23a1,1,0,0,0,0,2Z"/><path class="cls-4" d="M31.55,28.53a1.69,1.69,0,0,0-1.92,0L11.37,41.32V61.58a2.52,2.52,0,0,0,2.52,2.52H24.5V49.64c0-3.36,2.73-8.32,6.09-8.32s6.08,5,6.08,8.32V64.1H47.28a2.52,2.52,0,0,0,2.53-2.52V41.32ZM21.86,58.2a1.63,1.63,0,0,1-1.63,1.63H16.17a1.63,1.63,0,0,1-1.63-1.63v-11c0-2,1.64-5.15,3.66-5.15s3.66,3.13,3.66,5.15Zm8.73-18.37a4.09,4.09,0,1,1,4.08-4.08A4.09,4.09,0,0,1,30.59,39.83Zm16,18.37A1.63,1.63,0,0,1,45,59.83H40.94a1.63,1.63,0,0,1-1.63-1.63v-11c0-2,1.64-5.15,3.66-5.15s3.66,3.13,3.66,5.15Z"/><circle class="cls-2" cx="30.59" cy="35.75" r="2.98"/></svg>