<svg id="Layer_1" data-name="Layer 1" xmlns="http://www.w3.org/2000/svg" viewBox="0 0 63.4 46.41"><defs><style>.cls-1{fill:#fff;}.cls-2{fill:#eb008b;}.cls-3{fill:#75daf9;}.cls-4{fill:#dbdbdb;}.cls-5{fill:#04e762;}.cls-6{fill:#00a1e4;}</style></defs><title>Icon_Delivery</title><path class="cls-1" d="M58.5,14.81,55,12.9,47.84,4.08l-.47-.5A13.4,13.4,0,0,0,38.24,0H7.42A7.43,7.43,0,0,0,0,7.42V33a7.44,7.44,0,0,0,5.09,7,10.83,10.83,0,0,0,19.53.37H39.24a10.83,10.83,0,0,0,19.63-.6A7.45,7.45,0,0,0,63.4,33V22.39A8.28,8.28,0,0,0,58.5,14.81Z"/><path d="M56.74,18.41,52.39,16,44.74,6.6l-.09-.09A9.41,9.41,0,0,0,38.24,4H7.42A3.42,3.42,0,0,0,4,7.42V33a3.42,3.42,0,0,0,3.42,3.42h.74a6.84,6.84,0,0,0,13.57,0h20.4a6.84,6.84,0,0,0,13.57,0H56A3.45,3.45,0,0,0,59.4,33V22.39A4.28,4.28,0,0,0,56.74,18.41Z"/><path class="cls-2" d="M56,20l-.1-.05-4.7-2.57L43.39,7.78a7.61,7.61,0,0,0-5.15-2H7.42A1.63,1.63,0,0,0,5.78,7.42V33a1.63,1.63,0,0,0,1.64,1.64h.74a6.84,6.84,0,0,1,13.57,0h20.4a6.84,6.84,0,0,1,13.57,0H56A1.67,1.67,0,0,0,57.62,33V22.39A2.51,2.51,0,0,0,56,20Zm-8.39-1.8a1.36,1.36,0,0,1-1.27.87H32.07a1.36,1.36,0,0,1-1.36-1.37V8.87a1.36,1.36,0,0,1,1.36-1.36h6a4.75,4.75,0,0,1,3.24,1.27l6,8A1.33,1.33,0,0,1,47.64,18.24Z"/><path class="cls-3" d="M32.07,8.53a.35.35,0,0,0-.35.34v8.87a.35.35,0,0,0,.35.35h14.3a.33.33,0,0,0,.32-.22.32.32,0,0,0-.09-.38l-6-8a3.71,3.71,0,0,0-2.49-.93Z"/><circle class="cls-4" cx="14.95" cy="35.56" r="3.8"/><circle class="cls-4" cx="48.92" cy="35.56" r="3.8"/><path class="cls-1" d="M23.11,13.43H20.66V11.09A2.11,2.11,0,0,0,18.56,9H15.4a2,2,0,0,0-2,2v2.46H11.09A2.1,2.1,0,0,0,9,15.53v3.16a2,2,0,0,0,2,2h2.46V23a2.1,2.1,0,0,0,2.1,2.09h3.16a2,2,0,0,0,2-2V20.66H23a2.1,2.1,0,0,0,2.09-2.1V15.4A2,2,0,0,0,23.11,13.43Z"/><path class="cls-5" d="M18.69,23.68H15.4a.57.57,0,0,1-.57-.57V19.26h4.43v3.85A.57.57,0,0,1,18.69,23.68Z"/><path class="cls-2" d="M19.26,14.83H14.83V11a.57.57,0,0,1,.57-.56h3.29a.57.57,0,0,1,.57.56Z"/><path class="cls-6" d="M23.11,19.26H19.26V14.83h3.85a.56.56,0,0,1,.57.57v3.29A.57.57,0,0,1,23.11,19.26Z"/><path class="cls-5" d="M14.83,19.26H11a.57.57,0,0,1-.56-.57V15.4a.56.56,0,0,1,.56-.57h3.86Z"/></svg>