<svg id="Layer_1" data-name="Layer 1" xmlns="http://www.w3.org/2000/svg" viewBox="0 0 52.05 50.19"><defs><style>.cls-1{fill:#fff;}.cls-2{fill:#fbcca0;}.cls-3{fill:#f7e0cd;}.cls-4{fill:#eb008b;}.cls-5{fill:#c3e2f4;}.cls-6{fill:#75daf9;}.cls-7{fill:#04e762;}.cls-8{fill:#00a1e4;}</style></defs><title>Icon_Storefront</title><path class="cls-1" d="M43.65,0H8.41A8.42,8.42,0,0,0,0,8.41V18.63a8.39,8.39,0,0,0,1,3.94V41.79a8.41,8.41,0,0,0,8.41,8.4H42.77a8.41,8.41,0,0,0,8.41-8.4V22.36a8.38,8.38,0,0,0,.87-3.73V8.41A8.41,8.41,0,0,0,43.65,0Z"/><path d="M43.65,4H8.41A4.42,4.42,0,0,0,4,8.41V18.63A4.4,4.4,0,0,0,5,21.4V41.79a4.41,4.41,0,0,0,4.41,4.4H42.77a4.41,4.41,0,0,0,4.41-4.4V21.25a4.41,4.41,0,0,0,.87-2.62V8.41A4.41,4.41,0,0,0,43.65,4Z"/><path class="cls-2" d="M41,26H33.31a.71.71,0,0,0-.71.71V44.24h9.15V26.66A.71.71,0,0,0,41,26ZM34.57,37.57a1,1,0,1,1,1-1A1,1,0,0,1,34.57,37.57Z"/><path class="cls-3" d="M43.65,22.76h-3.9a4.09,4.09,0,0,1-3.29-1.67,4.12,4.12,0,0,1-3.3,1.67H29.27A4.09,4.09,0,0,1,26,21.16a4.1,4.1,0,0,1-3.24,1.6h-3.9a4.09,4.09,0,0,1-3.29-1.67,4.12,4.12,0,0,1-3.3,1.67H8.41a4.23,4.23,0,0,1-1.48-.28V41.79a2.46,2.46,0,0,0,2.46,2.45H31.48V26.66a1.83,1.83,0,0,1,1.83-1.82H41a1.83,1.83,0,0,1,1.83,1.82V44.24a2.46,2.46,0,0,0,2.37-2.45V22.44A4,4,0,0,1,43.65,22.76ZM28.84,41.39a1.67,1.67,0,0,1-1.67,1.67H11A1.67,1.67,0,0,1,9.3,41.39V26.51A1.67,1.67,0,0,1,11,24.84h16.2a1.67,1.67,0,0,1,1.67,1.67Z"/><path class="cls-4" d="M8.41,6A2.46,2.46,0,0,0,6,8.41V18.63a2.46,2.46,0,0,0,2.46,2.46H12.3a2.46,2.46,0,0,0,2.46-2.46V6.78A.83.83,0,0,0,13.93,6Z"/><path class="cls-4" d="M17.27,6a.84.84,0,0,0-.84.83V18.63a2.46,2.46,0,0,0,2.46,2.46h3.9a2.46,2.46,0,0,0,2.45-2.46V6.78A.83.83,0,0,0,24.41,6Z"/><path class="cls-4" d="M27.64,6a.83.83,0,0,0-.83.83V18.63a2.46,2.46,0,0,0,2.46,2.46h3.89a2.46,2.46,0,0,0,2.46-2.46V6.78A.83.83,0,0,0,34.79,6Z"/><path class="cls-4" d="M38.13,6a.84.84,0,0,0-.84.83V18.63a2.46,2.46,0,0,0,2.46,2.46h3.9a2.46,2.46,0,0,0,2.45-2.46V8.41A2.46,2.46,0,0,0,43.65,6Z"/><polygon class="cls-5" points="21.37 41.3 21.37 41.3 21.37 41.3 21.37 41.3 21.37 41.3"/><path class="cls-6" d="M27.17,26H11a.56.56,0,0,0-.56.56V41.39a.56.56,0,0,0,.56.55h16.2a.56.56,0,0,0,.56-.55V26.51A.56.56,0,0,0,27.17,26Z"/><path class="cls-1" d="M23.74,31.17H21.85v-1.8a1.62,1.62,0,0,0-1.62-1.61H17.8a1.52,1.52,0,0,0-1.51,1.52v1.89h-1.8a1.62,1.62,0,0,0-1.61,1.61v2.43a1.52,1.52,0,0,0,1.52,1.52h1.89v1.79a1.62,1.62,0,0,0,1.62,1.61h2.43a1.52,1.52,0,0,0,1.51-1.51V36.73h1.8a1.62,1.62,0,0,0,1.6-1.62V32.68A1.51,1.51,0,0,0,23.74,31.17Z"/><path class="cls-7" d="M20.34,39.05H17.8a.43.43,0,0,1-.43-.43v-3h3.4v3A.43.43,0,0,1,20.34,39.05Z"/><path class="cls-4" d="M20.77,32.25h-3.4v-3a.44.44,0,0,1,.43-.44h2.54a.44.44,0,0,1,.43.44Z"/><path class="cls-8" d="M23.74,35.65h-3v-3.4h3a.43.43,0,0,1,.43.43v2.53A.44.44,0,0,1,23.74,35.65Z"/><path class="cls-7" d="M17.37,35.65h-3a.44.44,0,0,1-.43-.44V32.68a.43.43,0,0,1,.43-.43h3Z"/></svg>