<svg id="Layer_1" data-name="Layer 1" xmlns="http://www.w3.org/2000/svg" viewBox="0 0 49.47 49.47"><defs><style>.cls-1{fill:#fff;}.cls-2{fill:#eb008b;}.cls-3{fill:#00a1e4;}.cls-4{fill:#04e762;}.cls-5{fill:none;}</style></defs><title>ic-brand</title><path class="cls-1" d="M43.42,13.61H35.87V6.43A6.49,6.49,0,0,0,29.4,0H19.67a6.06,6.06,0,0,0-6.05,6.06v7.55H6.43A6.49,6.49,0,0,0,0,20.08V29.8a6.06,6.06,0,0,0,6.06,6.06h7.56V43a6.48,6.48,0,0,0,6.46,6.43h9.73a6.06,6.06,0,0,0,6.06-6V35.86H43a6.48,6.48,0,0,0,6.43-6.47V19.67A6.06,6.06,0,0,0,43.42,13.61Z"/><rect class="cls-2" x="17.93" y="4.32" width="13.61" height="13.61"/><rect class="cls-3" x="31.55" y="17.93" width="13.61" height="13.61"/><rect class="cls-4" x="17.93" y="31.54" width="13.61" height="13.61"/><rect class="cls-4" x="4.32" y="17.93" width="13.61" height="13.61"/><path class="cls-5" d="M43.42,17.93H31.54V14.86h0V6.06a1.74,1.74,0,0,0-1.74-1.74H19.67a1.73,1.73,0,0,0-1.73,1.74V17.93H6.06a1.74,1.74,0,0,0-1.74,1.74V29.8a1.74,1.74,0,0,0,1.74,1.74H17.93V43.42a1.73,1.73,0,0,0,1.73,1.74H29.81a1.74,1.74,0,0,0,1.74-1.74V34.61h0V31.54H43.42a1.74,1.74,0,0,0,1.74-1.74V19.67A1.74,1.74,0,0,0,43.42,17.93Z"/></svg>