<svg id="Layer_1" data-name="Layer 1" xmlns="http://www.w3.org/2000/svg" viewBox="0 0 51.24 55.25"><defs><style>.cls-1{fill:#fff;}.cls-2{fill:#04e762;}</style></defs><title>ic-leaf</title><path class="cls-1" d="M51.22,32.66a5.14,5.14,0,0,0-3.48-4.4,36.09,36.09,0,0,0-4.41-1.16,45.93,45.93,0,0,0,4.31-11.46,5.13,5.13,0,0,0-7.52-5.58,47.86,47.86,0,0,0-7.57,5.36A53.34,53.34,0,0,0,25.18,2a5.13,5.13,0,0,0-9.09,1.89,53.57,53.57,0,0,0-1.33,15.28,47.52,47.52,0,0,0-9.2-1.86A5.13,5.13,0,0,0,1,25.53,46.39,46.39,0,0,0,9.65,34.3,37.23,37.23,0,0,0,6.23,37a5.13,5.13,0,0,0,3,8.9,37.45,37.45,0,0,0,5.69,0,5.14,5.14,0,0,0,7.9,4,28.13,28.13,0,0,0,2.7-2,30.09,30.09,0,0,0,3.55,5.41,5.14,5.14,0,0,0,4,1.88,6.17,6.17,0,0,0,.8-.06,5.13,5.13,0,0,0,4-3.16l.78-1.93,1-3-.23-.27A5.12,5.12,0,0,0,43.24,40a38.09,38.09,0,0,0,5.34-2.39A5.15,5.15,0,0,0,51.22,32.66Zm-6,3.18Z"/><path d="M46.47,32.05a31.29,31.29,0,0,0-10.36-1.6c5.12-5.55,7.22-13.87,7.63-15.67a1.13,1.13,0,0,0-1.66-1.23c-1.34.76-7.54,4.41-11.6,9.89-1.21-9-7.2-17.3-8.5-19a1.13,1.13,0,0,0-2,.41C19.48,7,17.33,17,19.91,25.72A39.71,39.71,0,0,0,5.23,21.34a1.13,1.13,0,0,0-1,1.8c1.1,1.48,6.41,8.27,13.36,11.26A32.14,32.14,0,0,0,8.93,40a1.13,1.13,0,0,0,.67,2,31.59,31.59,0,0,0,10.61-.89,23.88,23.88,0,0,0-1.28,4.38,1.13,1.13,0,0,0,.49,1.15,1.12,1.12,0,0,0,1.24,0A20.13,20.13,0,0,0,26.8,40.5a29.91,29.91,0,0,0,5.37,10.33,1.11,1.11,0,0,0,.88.42h.17a1.12,1.12,0,0,0,.88-.7l.78-1.93.22-.68-.4-.48a22.33,22.33,0,0,1-4-7.26,20.93,20.93,0,0,0,7.48,2.68,1.13,1.13,0,0,0,1.14-.51,1.16,1.16,0,0,0,0-1.25,24.42,24.42,0,0,0-3-3.5,31.18,31.18,0,0,0,10.25-3.5A1.09,1.09,0,0,0,47.23,33,1.12,1.12,0,0,0,46.47,32.05Z"/><path class="cls-2" d="M28.79,37a.63.63,0,0,1,.75.15c2.14,2.48,6,3.57,7.92,4a19.6,19.6,0,0,0-3.77-3.82.61.61,0,0,1,.36-1.11c4.45,0,9-2,11-3-2.17-.63-7.07-1.79-11.48-.93a.61.61,0,0,1-.5-1.08h0c5.53-4.4,8.17-12.85,9-15.81C39.51,16.89,33.42,21,30.28,26.56a.59.59,0,0,1-.68.3.61.61,0,0,1-.46-.59C29,17.6,23.22,8.8,21.29,6.11c-.68,3.25-2.44,13.7,1,21.68a.61.61,0,0,1-.93.73C16.22,24.62,9,23.35,6.06,23,8,25.38,13.81,32.05,20.65,33.83a.61.61,0,0,1,0,1.19c-4.3,1-8.21,4-9.91,5.45a26.84,26.84,0,0,0,11.05-1.61.62.62,0,0,1,.77.87,19.94,19.94,0,0,0-1.88,5c1.67-1.21,4.9-3.92,5.73-7.21A.63.63,0,0,1,27,37h0a.62.62,0,0,1,.59.47,30.54,30.54,0,0,0,5.33,11.82l.43-1.06a25,25,0,0,1-4.89-10.57A.6.6,0,0,1,28.79,37Z"/></svg>