<svg id="Layer_1" data-name="Layer 1" xmlns="http://www.w3.org/2000/svg" viewBox="0 0 41.87 53.41"><defs><style>.cls-1{fill:#fff;}.cls-2{fill:#fbcca0;}.cls-3{fill:none;stroke:#231f20;stroke-miterlimit:10;stroke-width:0.75px;}.cls-4{fill:#5c2f11;}.cls-5{fill:#00a1e4;}</style></defs><title>ic-service</title><path class="cls-1" d="M37.25,36.88l-4.09-1.74-2.27-1,.32-.33a10.7,10.7,0,0,0,3-6c1.76-2.28,3.08-6.46,1.65-9.67a16.81,16.81,0,0,0,.3-2.55C36.67,8.21,32.79,2.27,26.51.72,21.28-.56,17.06-.14,13.6,2a11.88,11.88,0,0,0-2.9,2.56C5.82,7,4.62,13,5.7,18v0c-1.43,3.21-.11,7.4,1.65,9.68a10.7,10.7,0,0,0,3,6l.32.33-2.26,1L5.15,36.54l-.76.4A9.56,9.56,0,0,0,.07,46.05l.32,3.13a4.72,4.72,0,0,0,4.69,4.23H36.8a4.72,4.72,0,0,0,4.69-4.23l.31-3A9.57,9.57,0,0,0,37.25,36.88Z"/><path d="M4.44,49.41h33l.38-3.66a5.55,5.55,0,0,0-2.65-5.44L31.55,38.8l-4.77-2.21v-4L28.37,31a6.77,6.77,0,0,0,2-4.79V26a2.92,2.92,0,0,0,.54-.45C32,24.32,33.18,21,32,19.33a3.84,3.84,0,0,0-.43-.52,15.07,15.07,0,0,0,.58-3.52C32.57,9.89,30,5.7,25.55,4.61c-4.12-1-7.34-.75-9.83.81a8.13,8.13,0,0,0-2.11,1.93,2.87,2.87,0,0,0-.21.36l-.08.14C9.18,9.06,9,14.27,9.55,16.9V17c0,.32.12.64.19,1l.18.93a5.05,5.05,0,0,0-.39.48c-1.14,1.65.06,5,1.15,6.17a2.92,2.92,0,0,0,.54.45v.21a6.77,6.77,0,0,0,2,4.79l1.59,1.6v4l-4.74,2.2L6.72,40.21l-.16.09a5.56,5.56,0,0,0-2.51,5.33Z"/><path class="cls-2" d="M21.22,34.75h-.87a6.31,6.31,0,0,1-4-1.48v3.62l4.46,2.29,4.48-2.29V33.27A6.36,6.36,0,0,1,21.22,34.75Z"/><path class="cls-3" d="M20.79,42.75"/><path class="cls-3" d="M13.21,37.92"/><path class="cls-3" d="M20.79,42.75"/><path class="cls-3" d="M28.36,37.92"/><path class="cls-2" d="M29.64,19.8v4.77a2.71,2.71,0,0,0,.55-.73c.65-1.17,1-3,.58-3.64a1.09,1.09,0,0,0-.71-.54A.66.66,0,0,0,29.64,19.8Z"/><polygon class="cls-1" points="21.62 40 23.74 41.47 25.2 38.17 21.62 40"/><polygon class="cls-1" points="16.37 38.17 17.83 41.47 19.95 40 16.37 38.17"/><polygon class="cls-1" points="19.12 45.92 18.05 42.67 19.5 41.66 20.05 42.31 19.12 45.92"/><polygon class="cls-1" points="21.52 42.31 22.07 41.66 23.52 42.67 22.45 45.92 21.52 42.31"/><path class="cls-2" d="M11.79,22.69v-.56c0-1.77-.43-2.3-.58-2.34h0a1.89,1.89,0,0,0-.39.41c-.46.66-.07,2.47.59,3.65a2.64,2.64,0,0,0,.54.72V22.69Z"/><path class="cls-4" d="M20.78,13.59a23.16,23.16,0,0,1,5,.55c2.29.5,2.92,3.9,3.08,6.13a2.57,2.57,0,0,1,.63-1.21,1.35,1.35,0,0,1,.36-.27,14.14,14.14,0,0,0,.66-3.6c.26-3.64-1-7.89-5.37-9-3.66-.9-6.45-.7-8.54.6A6.19,6.19,0,0,0,15,8.34a1.56,1.56,0,0,1-.09.17c-.09.17-.2.37-.28.5l-.08.12-.13.06-.29.16-.14.06c-3.32.84-3,5.36-2.82,6.76l.07.42a16.55,16.55,0,0,0,.52,2.2,1.35,1.35,0,0,1,.36.27,2.57,2.57,0,0,1,.63,1.21c.17-2.23.79-5.63,3.08-6.13A23.14,23.14,0,0,1,20.78,13.59Z"/><path class="cls-2" d="M27.79,22.69l0-.57c0-1.65-.27-6.46-2.26-6.9a21.89,21.89,0,0,0-9.53,0c-2,.44-2.3,5.25-2.25,6.9v.57H12.9v3.47a5.12,5.12,0,0,0,1.49,3.62l2.3,2.33a5.2,5.2,0,0,0,3.66,1.53h.87a5.2,5.2,0,0,0,3.66-1.53l2.3-2.33a5.12,5.12,0,0,0,1.49-3.62V22.69Z"/><path class="cls-5" d="M36,47.74l.22-2.19a3.89,3.89,0,0,0-1.85-3.81L31.6,40.62l-3.7,7.12Z"/><polygon class="cls-5" points="26.02 47.74 29.94 40.2 26.61 38.65 23.61 47.74 26.02 47.74"/><polygon class="cls-5" points="17.96 47.74 14.97 38.65 11.63 40.2 15.55 47.74 17.96 47.74"/><path class="cls-5" d="M5.94,47.74h7.73L10,40.63l-2.6,1.12a3.9,3.9,0,0,0-1.68,3.7Z"/></svg>