<svg id="Layer_1" data-name="Layer 1" xmlns="http://www.w3.org/2000/svg" viewBox="0 0 52.05 50.19"><defs><style>.cls-1{fill:#fff;}.cls-2{fill:#fbcca0;}.cls-3{fill:#f7e0cd;}.cls-4{fill:#eb008b;}.cls-5{fill:#c3e2f4;}.cls-6{fill:#75daf9;}.cls-7{fill:#04e762;}</style></defs><title>ic-shop</title><path class="cls-1" d="M43.65,0H8.41A8.42,8.42,0,0,0,0,8.41V18.63a8.39,8.39,0,0,0,1,3.94V41.79a8.41,8.41,0,0,0,8.41,8.4H42.77a8.41,8.41,0,0,0,8.41-8.4V22.36a8.38,8.38,0,0,0,.87-3.73V8.41A8.41,8.41,0,0,0,43.65,0Z"/><path d="M43.65,4H8.41A4.42,4.42,0,0,0,4,8.41V18.63A4.4,4.4,0,0,0,5,21.4V41.79a4.41,4.41,0,0,0,4.41,4.4H42.77a4.41,4.41,0,0,0,4.41-4.4V21.25a4.41,4.41,0,0,0,.87-2.62V8.41A4.41,4.41,0,0,0,43.65,4Z"/><path class="cls-2" d="M41,26H33.31a.71.71,0,0,0-.71.71V44.24h9.15V26.66A.71.71,0,0,0,41,26ZM34.57,37.57a1,1,0,1,1,1-1A1,1,0,0,1,34.57,37.57Z"/><path class="cls-3" d="M43.65,22.76h-3.9a4.09,4.09,0,0,1-3.29-1.67,4.12,4.12,0,0,1-3.3,1.67H29.27A4.09,4.09,0,0,1,26,21.16a4.1,4.1,0,0,1-3.24,1.6h-3.9a4.09,4.09,0,0,1-3.29-1.67,4.12,4.12,0,0,1-3.3,1.67H8.41a4.23,4.23,0,0,1-1.48-.28V41.79a2.46,2.46,0,0,0,2.46,2.45H31.48V26.66a1.83,1.83,0,0,1,1.83-1.82H41a1.83,1.83,0,0,1,1.83,1.82V44.24a2.46,2.46,0,0,0,2.37-2.45V22.44A4,4,0,0,1,43.65,22.76ZM28.84,41.39a1.67,1.67,0,0,1-1.67,1.67H11A1.67,1.67,0,0,1,9.3,41.39V26.51A1.67,1.67,0,0,1,11,24.84h16.2a1.67,1.67,0,0,1,1.67,1.67Z"/><path class="cls-4" d="M8.41,6A2.46,2.46,0,0,0,6,8.41V18.63a2.46,2.46,0,0,0,2.46,2.46H12.3a2.46,2.46,0,0,0,2.46-2.46V6.78A.83.83,0,0,0,13.93,6Z"/><path class="cls-4" d="M17.27,6a.84.84,0,0,0-.84.83V18.63a2.46,2.46,0,0,0,2.46,2.46h3.9a2.46,2.46,0,0,0,2.45-2.46V6.78A.83.83,0,0,0,24.41,6Z"/><path class="cls-4" d="M27.64,6a.83.83,0,0,0-.83.83V18.63a2.46,2.46,0,0,0,2.46,2.46h3.89a2.46,2.46,0,0,0,2.46-2.46V6.78A.83.83,0,0,0,34.79,6Z"/><path class="cls-4" d="M38.13,6a.84.84,0,0,0-.84.83V18.63a2.46,2.46,0,0,0,2.46,2.46h3.9a2.46,2.46,0,0,0,2.45-2.46V8.41A2.46,2.46,0,0,0,43.65,6Z"/><polygon class="cls-5" points="21.37 41.3 21.37 41.3 21.37 41.3 21.37 41.3 21.37 41.3"/><path class="cls-6" d="M27.17,26H11a.56.56,0,0,0-.56.56V41.39a.56.56,0,0,0,.56.55h16.2a.56.56,0,0,0,.56-.55V26.51A.56.56,0,0,0,27.17,26ZM25.72,36.21h0a10.67,10.67,0,0,1-2.76,1,9.12,9.12,0,0,1,.59.75.63.63,0,0,1-.62,1,7.47,7.47,0,0,1-1.76-.52,6.52,6.52,0,0,0,.91,1.49l.23.26-.12.36-.25.62a.66.66,0,0,1-.49.39h-.09a.63.63,0,0,1-.49-.24,9,9,0,0,1-1.54-2.77,7.06,7.06,0,0,1-1.68,1.51.63.63,0,0,1-1-.64,8.41,8.41,0,0,1,.23-.92,10.75,10.75,0,0,1-2.89.16.63.63,0,0,1-.37-1.09,10.82,10.82,0,0,1,2.23-1.54,12.72,12.72,0,0,1-3.73-3.33.66.66,0,0,1,0-.69.63.63,0,0,1,.61-.32,13.34,13.34,0,0,1,4.11,1.11,14.82,14.82,0,0,1,.18-6,.64.64,0,0,1,.48-.47.65.65,0,0,1,.64.24A14.9,14.9,0,0,1,20.72,32,13,13,0,0,1,24,29.33.63.63,0,0,1,25,30a12.69,12.69,0,0,1-2,4.54,10.22,10.22,0,0,1,2.71.51.63.63,0,0,1,.1,1.15Z"/><path class="cls-7" d="M20,36.87a.18.18,0,0,1,.23.05,4.85,4.85,0,0,0,2.47,1.24A5.68,5.68,0,0,0,21.55,37a.2.2,0,0,1-.06-.22.19.19,0,0,1,.18-.13,8.28,8.28,0,0,0,3.41-.93,8.09,8.09,0,0,0-3.57-.29.19.19,0,0,1-.21-.11.19.19,0,0,1,.05-.23h0c1.72-1.37,2.54-4,2.79-4.92a10.56,10.56,0,0,0-3.64,3.48.21.21,0,0,1-.22.09.19.19,0,0,1-.14-.18c0-2.7-1.84-5.44-2.44-6.28-.21,1-.76,4.27.31,6.75a.2.2,0,0,1-.06.23.2.2,0,0,1-.23,0A10.5,10.5,0,0,0,13,32.51a10,10,0,0,0,4.54,3.37.19.19,0,0,1,.14.18.2.2,0,0,1-.14.19,8.3,8.3,0,0,0-3.09,1.69,8.29,8.29,0,0,0,3.44-.5.21.21,0,0,1,.22.05.2.2,0,0,1,0,.22,6,6,0,0,0-.59,1.55A4.63,4.63,0,0,0,19.29,37a.19.19,0,0,1,.18-.15h0a.19.19,0,0,1,.18.15,9.38,9.38,0,0,0,1.66,3.67l.13-.33a7.9,7.9,0,0,1-1.52-3.28A.18.18,0,0,1,20,36.87Z"/></svg>