<svg id="Layer_1" data-name="Layer 1" xmlns="http://www.w3.org/2000/svg" viewBox="0 0 63.4 46.41"><defs><style>.cls-1{fill:#fff;}.cls-2{fill:#ea526f;}.cls-3{fill:#04e762;}.cls-4{fill:#eb008b;}.cls-5{fill:#75daf9;}.cls-6{fill:#dbdbdb;}</style></defs><title>ic-van</title><path class="cls-1" d="M58.5,14.81,55,12.9,47.84,4.08l-.47-.5A13.4,13.4,0,0,0,38.24,0H7.42A7.43,7.43,0,0,0,0,7.42V33a7.44,7.44,0,0,0,5.09,7,10.83,10.83,0,0,0,19.53.37H39.24a10.83,10.83,0,0,0,19.63-.6A7.45,7.45,0,0,0,63.4,33V22.39A8.28,8.28,0,0,0,58.5,14.81Z"/><path d="M56.74,18.41,52.39,16,44.74,6.6l-.09-.09A9.41,9.41,0,0,0,38.24,4H7.42A3.42,3.42,0,0,0,4,7.42V33a3.42,3.42,0,0,0,3.42,3.42h.74a6.84,6.84,0,0,0,13.57,0h20.4a6.84,6.84,0,0,0,13.57,0H56A3.45,3.45,0,0,0,59.4,33V22.39A4.28,4.28,0,0,0,56.74,18.41Z"/><path class="cls-2" d="M22.55,20.2a.27.27,0,0,1-.3-.15.26.26,0,0,1,.08-.32h0c2.44-1.94,3.61-5.68,4-7a15.15,15.15,0,0,0-5.18,4.94.28.28,0,0,1-.31.13.27.27,0,0,1-.2-.26C20.55,13.7,18,9.81,17.12,8.61c-.3,1.44-1.07,6.07.45,9.6a.27.27,0,0,1-.08.32.29.29,0,0,1-.34,0,15,15,0,0,0-6.77-2.45c.85,1.05,3.43,4,6.46,4.8a.27.27,0,0,1,0,.52,11.72,11.72,0,0,0-4.39,2.42,12,12,0,0,0,4.89-.72.28.28,0,0,1,.31.07.27.27,0,0,1,0,.32,8.8,8.8,0,0,0-.83,2.2,6.59,6.59,0,0,0,2.54-3.19.27.27,0,0,1,.26-.21h0a.27.27,0,0,1,.27.21,13.42,13.42,0,0,0,2.36,5.23l.19-.47a11.1,11.1,0,0,1-2.17-4.68.28.28,0,0,1,.15-.3.28.28,0,0,1,.33.07,6.74,6.74,0,0,0,3.5,1.77,8.72,8.72,0,0,0-1.67-1.69.31.31,0,0,1-.1-.31.27.27,0,0,1,.26-.18,12,12,0,0,0,4.86-1.33A11.64,11.64,0,0,0,22.55,20.2Z"/><path class="cls-3" d="M22.55,20.2a.27.27,0,0,1-.3-.15.26.26,0,0,1,.08-.32h0c2.44-1.94,3.61-5.68,4-7a15.15,15.15,0,0,0-5.18,4.94.28.28,0,0,1-.31.13.27.27,0,0,1-.2-.26C20.55,13.7,18,9.81,17.12,8.61c-.3,1.44-1.07,6.07.45,9.6a.27.27,0,0,1-.08.32.29.29,0,0,1-.34,0,15,15,0,0,0-6.77-2.45c.85,1.05,3.43,4,6.46,4.8a.27.27,0,0,1,0,.52,11.72,11.72,0,0,0-4.39,2.42,12,12,0,0,0,4.89-.72.28.28,0,0,1,.31.07.27.27,0,0,1,0,.32,8.8,8.8,0,0,0-.83,2.2,6.59,6.59,0,0,0,2.54-3.19.27.27,0,0,1,.26-.21h0a.27.27,0,0,1,.27.21,13.42,13.42,0,0,0,2.36,5.23l.19-.47a11.1,11.1,0,0,1-2.17-4.68.28.28,0,0,1,.15-.3.28.28,0,0,1,.33.07,6.74,6.74,0,0,0,3.5,1.77,8.72,8.72,0,0,0-1.67-1.69.31.31,0,0,1-.1-.31.27.27,0,0,1,.26-.18,12,12,0,0,0,4.86-1.33A11.64,11.64,0,0,0,22.55,20.2Z"/><path class="cls-4" d="M56,20l-.1-.05-4.7-2.57L43.39,7.78a7.61,7.61,0,0,0-5.15-2H7.42A1.63,1.63,0,0,0,5.78,7.42V33a1.63,1.63,0,0,0,1.64,1.64h.74a6.84,6.84,0,0,1,13.57,0h20.4a6.84,6.84,0,0,1,13.57,0H56A1.67,1.67,0,0,0,57.62,33V22.39A2.51,2.51,0,0,0,56,20ZM28.48,21.23a14.58,14.58,0,0,1-4.14,1.51,9.9,9.9,0,0,1,1,1.23.76.76,0,0,1,0,.83.74.74,0,0,1-.75.34,9.89,9.89,0,0,1-2.8-.88,9.15,9.15,0,0,0,1.47,2.49l.26.32-.14.44-.35.87a.76.76,0,0,1-.58.46h-.12a.76.76,0,0,1-.59-.28,13.08,13.08,0,0,1-2.25-4.15A9.73,9.73,0,0,1,17,26.75a.76.76,0,0,1-.83,0,.77.77,0,0,1-.32-.77,11.82,11.82,0,0,1,.41-1.52,14.61,14.61,0,0,1-4.32.28.76.76,0,0,1-.44-1.31,14.86,14.86,0,0,1,3.39-2.29,17.46,17.46,0,0,1-5.51-4.82.8.8,0,0,1,0-.83A.77.77,0,0,1,10,15.1a18.67,18.67,0,0,1,6.07,1.69A20.79,20.79,0,0,1,16.3,8a.75.75,0,0,1,1.33-.28,20.7,20.7,0,0,1,3.72,8,18.3,18.3,0,0,1,4.85-4,.74.74,0,0,1,.82.05.77.77,0,0,1,.29.77,17.58,17.58,0,0,1-3.06,6.62,14.07,14.07,0,0,1,4.1.73.73.73,0,0,1,.51.64A.74.74,0,0,1,28.48,21.23Zm19.16-3a1.36,1.36,0,0,1-1.27.87H32.07a1.36,1.36,0,0,1-1.36-1.37V8.87a1.36,1.36,0,0,1,1.36-1.36h6a4.75,4.75,0,0,1,3.24,1.27l6,8A1.33,1.33,0,0,1,47.64,18.24Z"/><path class="cls-5" d="M32.07,8.53a.35.35,0,0,0-.35.34v8.87a.35.35,0,0,0,.35.35h14.3a.33.33,0,0,0,.32-.22.32.32,0,0,0-.09-.38l-6-8a3.71,3.71,0,0,0-2.49-.93Z"/><circle class="cls-6" cx="14.95" cy="35.56" r="3.8"/><circle class="cls-6" cx="48.92" cy="35.56" r="3.8"/></svg>