<svg id="Layer_1" data-name="Layer 1" xmlns="http://www.w3.org/2000/svg" viewBox="0 0 52.18 46.49"><defs><style>.cls-1{fill:#fff;}.cls-2{fill:#75daf9;}.cls-3{fill:#04e762;}.cls-4{fill:#dbdbdb;}</style></defs><title>Icon_Online</title><path class="cls-1" d="M43.8,0H8.38A8.39,8.39,0,0,0,0,8.38V30.83a8.39,8.39,0,0,0,8.38,8.38h2.34a6.12,6.12,0,0,0,.51,3.93,6,6,0,0,0,5.43,3.35H35.52a6.06,6.06,0,0,0,5.94-7.28H43.8a8.39,8.39,0,0,0,8.38-8.38V8.38A8.39,8.39,0,0,0,43.8,0Z"/><path d="M43.8,35.21H8.38A4.38,4.38,0,0,1,4,30.83V8.38A4.38,4.38,0,0,1,8.38,4H43.8a4.39,4.39,0,0,1,4.38,4.38V30.83A4.39,4.39,0,0,1,43.8,35.21Z"/><path d="M35.51,42.49H16.66A2.06,2.06,0,0,1,15,39.18l1.77-2.35A2.1,2.1,0,0,1,18.43,36H33.75a2.1,2.1,0,0,1,1.65.82l1.77,2.35a2.06,2.06,0,0,1-1.66,3.31Z"/><path class="cls-2" d="M43.8,5.77H8.38A2.61,2.61,0,0,0,5.77,8.38V30.83a2.61,2.61,0,0,0,2.61,2.61H43.8a2.61,2.61,0,0,0,2.61-2.61V8.38A2.61,2.61,0,0,0,43.8,5.77ZM37.06,23.2A17.34,17.34,0,0,1,32.25,25a13.11,13.11,0,0,1,1.15,1.43.88.88,0,0,1-.86,1.36,11.8,11.8,0,0,1-3.26-1A10.87,10.87,0,0,0,31,29.62l.31.37-.16.5-.41,1a.88.88,0,0,1-.68.54h-.14a.9.9,0,0,1-.68-.32,15.2,15.2,0,0,1-2.62-4.83,11,11,0,0,1-2.91,2.7.88.88,0,0,1-1.34-.89,12,12,0,0,1,.47-1.78,17,17,0,0,1-5,.33.88.88,0,0,1-.76-.59.89.89,0,0,1,.24-.93,17.26,17.26,0,0,1,3.94-2.66,20.5,20.5,0,0,1-6.4-5.61.88.88,0,0,1-.06-1,.86.86,0,0,1,.84-.44,21.52,21.52,0,0,1,7.07,2A24,24,0,0,1,22.9,7.83a.9.9,0,0,1,.68-.66.88.88,0,0,1,.87.33,23.94,23.94,0,0,1,4.32,9.24,21.55,21.55,0,0,1,5.64-4.63.88.88,0,0,1,1,.06.89.89,0,0,1,.33.89,20.23,20.23,0,0,1-3.56,7.7,17.11,17.11,0,0,1,4.77.84.89.89,0,0,1,.6.76A.88.88,0,0,1,37.06,23.2Z"/><path class="cls-3" d="M27.72,24.43a.33.33,0,0,1,.39.09,7.88,7.88,0,0,0,4.08,2.05,10.48,10.48,0,0,0-1.95-2,.3.3,0,0,1-.11-.35.31.31,0,0,1,.3-.22,13.68,13.68,0,0,0,5.64-1.54,13.32,13.32,0,0,0-5.9-.48.33.33,0,0,1-.35-.18.32.32,0,0,1,.09-.38h0c2.84-2.26,4.2-6.61,4.6-8.14a17.82,17.82,0,0,0-6,5.75.3.3,0,0,1-.35.15.31.31,0,0,1-.24-.3c-.06-4.46-3-9-4-10.37-.35,1.67-1.25,7,.52,11.15a.32.32,0,0,1-.1.38.3.3,0,0,1-.38,0A17.62,17.62,0,0,0,16,17.22c1,1.23,4,4.66,7.5,5.58a.32.32,0,0,1,.24.31.31.31,0,0,1-.24.3,13.65,13.65,0,0,0-5.1,2.81,13.89,13.89,0,0,0,5.68-.83.32.32,0,0,1,.36.08.3.3,0,0,1,0,.36,10.48,10.48,0,0,0-1,2.56,7.5,7.5,0,0,0,2.95-3.71.32.32,0,0,1,.31-.24h0a.32.32,0,0,1,.31.24,15.69,15.69,0,0,0,2.74,6.09l.22-.55a13.11,13.11,0,0,1-2.52-5.44A.32.32,0,0,1,27.72,24.43Z"/><path class="cls-4" d="M18.43,37.78a.29.29,0,0,0-.23.12l-1.77,2.35a.28.28,0,0,0,0,.31.27.27,0,0,0,.26.16H35.51a.29.29,0,0,0,.27-.16.28.28,0,0,0,0-.31L34,37.9a.29.29,0,0,0-.23-.12Z"/></svg>