<svg id="Layer_1" data-name="Layer 1" xmlns="http://www.w3.org/2000/svg" viewBox="0 0 229.93 50"><defs><style>.cls-1{fill:#eb008b;}.cls-2{fill:#00a1e4;}.cls-3{fill:#fff;}.cls-4{fill:#04e762;}.cls-5{fill:none;}</style></defs><title>nav-brand</title><rect class="cls-1" x="17.1" y="3.25" width="13.95" height="13.95"/><rect class="cls-2" x="31.04" y="17.2" width="13.95" height="13.95"/><rect class="cls-3" x="17.1" y="17.2" width="13.95" height="13.95"/><rect class="cls-4" x="17.1" y="31.14" width="13.95" height="13.95"/><rect class="cls-4" x="3.15" y="17.2" width="13.95" height="13.95"/><path class="cls-5" d="M43.21,17.2H31V14.05h0V5a1.78,1.78,0,0,0-1.78-1.78H18.88A1.78,1.78,0,0,0,17.1,5V17.2H4.93A1.78,1.78,0,0,0,3.14,19V29.36a1.78,1.78,0,0,0,1.79,1.78H17.1V43.31a1.78,1.78,0,0,0,1.78,1.78H29.26A1.78,1.78,0,0,0,31,43.31v-9h0V31.14H43.21A1.78,1.78,0,0,0,45,29.36V19A1.78,1.78,0,0,0,43.21,17.2Z"/><path class="cls-3" d="M43.21,14.05h-9V5.42A5.36,5.36,0,0,0,28.84.1h-10A4.93,4.93,0,0,0,14,5v9H5.32A5.36,5.36,0,0,0,0,19.4v10a4.93,4.93,0,0,0,4.93,4.93h9v8.63a5.36,5.36,0,0,0,5.35,5.32h10a4.93,4.93,0,0,0,4.93-4.93v-9h8.63a5.35,5.35,0,0,0,5.31-5.35V19A4.93,4.93,0,0,0,43.21,14.05ZM45,29.36a1.78,1.78,0,0,1-1.78,1.78H31v3.15h0v9a1.78,1.78,0,0,1-1.78,1.78H18.88a1.78,1.78,0,0,1-1.78-1.78V31.14H4.93a1.78,1.78,0,0,1-1.79-1.78V19A1.78,1.78,0,0,1,4.93,17.2H17.1V5a1.78,1.78,0,0,1,1.78-1.78H29.26A1.78,1.78,0,0,1,31,5v9h0V17.2H43.21A1.78,1.78,0,0,1,45,19Z"/><path d="M137.18,0a4.83,4.83,0,0,0-4.26,4.89V29.05a11.45,11.45,0,0,1-.89,4.51,11.76,11.76,0,0,1-2.49,3.7,11.64,11.64,0,0,1-3.71,2.49,12.12,12.12,0,0,1-9.11,0A11.32,11.32,0,0,1,113,37.27a12.18,12.18,0,0,1-2.51-3.73,11,11,0,0,1-.92-4.49V4.93A4.84,4.84,0,0,0,105.37,0a4.67,4.67,0,0,0-5.11,4.65V29.05a20.32,20.32,0,0,0,1.65,8.22,22.19,22.19,0,0,0,4.56,6.64,20.38,20.38,0,0,0,6.64,4.44A20.08,20.08,0,0,0,121.3,50a20.6,20.6,0,0,0,8.15-1.64,20.9,20.9,0,0,0,6.65-4.48,21.45,21.45,0,0,0,4.5-6.66,20.34,20.34,0,0,0,1.67-8.17V4.67A4.67,4.67,0,0,0,137.18,0Z"/><path d="M225,38.88h-17.8V4.93A4.85,4.85,0,0,0,203,0a4.68,4.68,0,0,0-5.11,4.65V43.11A5.13,5.13,0,0,0,203,48.24h22.27a4.68,4.68,0,0,0,4.65-5.1A4.83,4.83,0,0,0,225,38.88Z"/><path d="M91.65,0a4.74,4.74,0,0,0-3.38,1.38A4.41,4.41,0,0,0,87,4.5l0,27.68L64.54,1.89A4.73,4.73,0,0,0,60.73,0h-2a4.74,4.74,0,0,0-3.38,1.38A4.41,4.41,0,0,0,54,4.5l.05,39.22a4.38,4.38,0,0,0,1.33,3.13,4.77,4.77,0,0,0,3.4,1.36h.05a4.6,4.6,0,0,0,4.63-4.51L63.38,16,85.91,46.35a4.75,4.75,0,0,0,3.81,1.89h2a4.75,4.75,0,0,0,3.38-1.39,4.35,4.35,0,0,0,1.3-3.12l-.1-39.25A4.6,4.6,0,0,0,91.65,0Z"/><path d="M190.85,20.53h-18.4a4.44,4.44,0,1,0,0,8.88h13a15.78,15.78,0,0,1-4.48,7.33,16,16,0,1,1-2.39-25.3,4.4,4.4,0,0,0,5.47-.71h0a4.46,4.46,0,0,0-.82-6.9A25,25,0,1,0,195,24.63,4.13,4.13,0,0,0,190.85,20.53Z"/></svg>