<?xml version="1.0" encoding="utf-8"?>
<!-- Generator: Adobe Illustrator 21.1.0, SVG Export Plug-In . SVG Version: 6.00 Build 0)  -->
<svg version="1.1" id="Layer_1" xmlns="http://www.w3.org/2000/svg" xmlns:xlink="http://www.w3.org/1999/xlink" x="0px" y="0px"
	 viewBox="0 0 114.6 25" style="enable-background:new 0 0 114.6 25;" xml:space="preserve">
<style type="text/css">
	.st0{fill:#EA526F;}
	.st1{fill:#6BF178;}
	.st2{fill:#4285F4;}
	.st3{fill:#FFFFFF;}
</style>
<g>
	<rect x="7.9" y="0.6" class="st0" width="7.9" height="7.9"/>
	<rect y="8.4" class="st1" width="7.9" height="7.9"/>
	<rect x="15.9" y="8.4" class="st2" width="7.9" height="7.9"/>
	<rect x="7.9" y="16.5" class="st1" width="7.9" height="7.9"/>
</g>
<g>
	<path class="st3" d="M84,14.2h9c-0.2,0.8-0.5,1.5-0.9,2.2c-0.5,0.9-1.1,1.7-1.9,2.3c-0.7,0.7-1.6,1.2-2.6,1.6
		c-0.9,0.4-2,0.6-3.2,0.6s-2.3-0.3-3.3-0.7c-1-0.5-1.9-1.1-2.7-1.9c-0.8-0.8-1.4-1.7-1.8-2.7S76,13.4,76,12.2s0.3-2.3,0.7-3.3
		c0.5-1,1.1-1.9,1.9-2.7c0.9-0.7,1.8-1.3,2.8-1.7s2.1-0.7,3.3-0.7c1.8,0,3.4,0.5,4.8,1.4L90,5.5l2.2-3.2L91.7,2
		c-1-0.7-2.2-1.2-3.3-1.6C87,0.2,85.9,0,84.6,0c-1.7,0-3.3,0.4-4.8,1s-2.8,1.5-4,2.7c-1.1,1.1-2,2.5-2.7,4c-0.6,1.6-1,3.2-1,4.9
		c0,1.6,0.3,3.3,1,4.9c0.6,1.5,1.5,2.8,2.7,4s2.5,2.1,4,2.7c1.6,0.6,3.2,1,4.8,1c1.7,0,3.4-0.3,4.9-1c1.5-0.6,2.8-1.5,4-2.7
		s2.1-2.5,2.7-4s0.9-3.1,0.9-4.8v-2h-13L84,14.2L84,14.2z"/>
	<polygon class="st3" points="103.7,20.4 103.7,0.4 99.7,0.4 99.7,24.4 114.6,24.4 114.6,20.4 	"/>
	<polygon class="st3" points="43.5,0.4 43.5,17.5 31.4,0.4 27.4,0.4 27.5,24.4 31.4,24.3 31.3,7.2 43.5,24.4 47.4,24.4 47.4,0.4 	
		"/>
</g>
<path class="st3" d="M65.6,0.4v14.5c0,0.8-0.2,1.6-0.5,2.3c-0.3,0.7-0.8,1.4-1.3,1.9c-0.6,0.6-1.2,1-1.9,1.3s-1.5,0.4-2.2,0.5
	c-0.8,0-1.6-0.2-2.2-0.5c-0.7-0.3-1.3-0.7-1.9-1.3c-0.5-0.5-1-1.2-1.3-1.9c-0.3-0.7-0.5-1.5-0.5-2.3V0.4h-4v14.5
	c0,1.4,0.3,2.7,0.8,3.9c0.5,1.2,1.2,2.2,2.1,3.2c0.9,0.9,1.9,1.6,3.2,2.1c1.2,0.5,2.4,0.8,3.9,0.8c1.4,0,2.6-0.3,3.9-0.8
	c1.2-0.5,2.2-1.2,3.2-2.1c0.9-0.9,1.6-1.9,2.1-3.2c0.5-1.1,0.8-2.4,0.8-3.9V0.4H65.6z"/>
</svg>
