<svg id="Layer_1" data-name="Layer 1" xmlns="http://www.w3.org/2000/svg" viewBox="0 0 230.92 51.54"><defs><style>.cls-1{fill:none;}.cls-2{fill:#fff;}.cls-3{fill:#eb008b;}.cls-4{fill:#00a1e4;}.cls-5{fill:#04e762;}</style></defs><title>nav-brand-outline</title><rect class="cls-1" width="230.92" height="51.54"/><path class="cls-2" d="M43.42,13.88H35.87V6.7A6.49,6.49,0,0,0,29.4.27H19.67a6.06,6.06,0,0,0-6.05,6.06v7.55H6.43A6.49,6.49,0,0,0,0,20.35v9.72a6.07,6.07,0,0,0,6.06,6.06h7.56v7.18a6.48,6.48,0,0,0,6.46,6.43h9.73a6.06,6.06,0,0,0,6.06-6.06V36.13H43a6.48,6.48,0,0,0,6.43-6.47V19.94A6.06,6.06,0,0,0,43.42,13.88Z"/><rect class="cls-3" x="17.93" y="4.59" width="13.61" height="13.61"/><rect class="cls-4" x="31.55" y="18.2" width="13.61" height="13.61"/><rect class="cls-5" x="17.93" y="31.81" width="13.61" height="13.61"/><rect class="cls-5" x="4.32" y="18.2" width="13.61" height="13.61"/><path class="cls-1" d="M43.42,18.2H31.54V15.13h0V6.33a1.74,1.74,0,0,0-1.74-1.74H19.67a1.73,1.73,0,0,0-1.73,1.74V18.2H6.06a1.74,1.74,0,0,0-1.74,1.74V30.07a1.74,1.74,0,0,0,1.74,1.74H17.93V43.69a1.72,1.72,0,0,0,1.73,1.73H29.81a1.73,1.73,0,0,0,1.74-1.74v-8.8h0V31.81H43.42a1.74,1.74,0,0,0,1.74-1.74V19.94A1.74,1.74,0,0,0,43.42,18.2Z"/><path class="cls-2" d="M115.54,51.54A22.48,22.48,0,0,1,99.73,45a23.33,23.33,0,0,1-4.79-7,21.84,21.84,0,0,1-1.81-8.84V8.48A8.49,8.49,0,0,1,102.39,0a8.65,8.65,0,0,1,7.7,8.65V29.21a5.09,5.09,0,0,0,.4,2,6.12,6.12,0,0,0,1.22,1.82,5.21,5.21,0,0,0,1.68,1.12,5.85,5.85,0,0,0,4.24,0,5.36,5.36,0,0,0,2.89-2.9,5.13,5.13,0,0,0,.4-2.07V8.68A8.64,8.64,0,0,1,128.66,0h0a8.49,8.49,0,0,1,9.22,8.45V29.21a21.82,21.82,0,0,1-1.8,8.75,22.67,22.67,0,0,1-4.76,7,22.44,22.44,0,0,1-7.09,4.78A22.05,22.05,0,0,1,115.54,51.54Z"/><path class="cls-2" d="M204,50H185a8.88,8.88,0,0,1-8.86-8.86V8.48A8.49,8.49,0,0,1,185.43,0a8.65,8.65,0,0,1,7.7,8.65V33.08h10.64a8.64,8.64,0,0,1,8.65,7.74A8.49,8.49,0,0,1,204,50Z"/><path class="cls-2" d="M90.4,50H88.67a8.56,8.56,0,0,1-6.85-3.42l-11-14.83,0,9.87A8.43,8.43,0,0,1,62.45,50a8.58,8.58,0,0,1-6.15-2.46,8.18,8.18,0,0,1-2.46-5.86L53.79,8.34A8.23,8.23,0,0,1,56.21,2.5,8.51,8.51,0,0,1,62.27,0H64a8.54,8.54,0,0,1,6.85,3.43l11,14.8,0-9.89A8.18,8.18,0,0,1,84.26,2.5,8.51,8.51,0,0,1,98.79,8.3l.09,33.39a8.15,8.15,0,0,1-2.42,5.84A8.48,8.48,0,0,1,90.4,50Z"/><path class="cls-2" d="M157,51.45c-.38,0-.77,0-1.15,0a25.69,25.69,0,1,1,14.7-47.48,8.26,8.26,0,0,1,.78,13.52h3.35a8.05,8.05,0,0,1,8,7.92,25.45,25.45,0,0,1-7.3,18.35A25.71,25.71,0,0,1,157,51.45Z"/><path d="M129,4.52a4.1,4.1,0,0,0-3.62,4.16V29.21a9.61,9.61,0,0,1-.76,3.84,10,10,0,0,1-2.12,3.15,9.88,9.88,0,0,1-3.15,2.12,10.29,10.29,0,0,1-7.75,0,9.42,9.42,0,0,1-3.13-2.1A10.59,10.59,0,0,1,106.37,33a9.36,9.36,0,0,1-.78-3.82V8.69A4.12,4.12,0,0,0,102,4.52a4,4,0,0,0-4.35,4V29.21a17.35,17.35,0,0,0,1.41,7,19,19,0,0,0,3.88,5.65A17.94,17.94,0,0,0,115.54,47a17.48,17.48,0,0,0,6.93-1.4,17.92,17.92,0,0,0,5.66-3.81A18.54,18.54,0,0,0,132,36.16a17.35,17.35,0,0,0,1.42-6.95V8.48A4,4,0,0,0,129,4.52Z"/><path d="M203.77,37.58H188.63V8.69A4.12,4.12,0,0,0,185,4.52a4,4,0,0,0-4.35,4v32.7A4.36,4.36,0,0,0,185,45.54H204a4,4,0,0,0,4-4.34A4.1,4.1,0,0,0,203.77,37.58Z"/><path d="M90.31,4.5a4,4,0,0,0-2.87,1.18,3.71,3.71,0,0,0-1.11,2.65l0,23.55L67.25,6.1A4.06,4.06,0,0,0,64,4.5H62.27A4,4,0,0,0,59.4,5.68a3.71,3.71,0,0,0-1.11,2.65l.05,33.36a3.72,3.72,0,0,0,1.12,2.66,4.06,4.06,0,0,0,2.9,1.16h0a3.91,3.91,0,0,0,3.94-3.84l-.08-23.55L85.43,43.93a4,4,0,0,0,3.24,1.61H90.4a4,4,0,0,0,2.88-1.18,3.76,3.76,0,0,0,1.1-2.66L94.29,8.32A3.91,3.91,0,0,0,90.31,4.5Z"/><path d="M174.7,22H159.05a3.78,3.78,0,0,0,0,7.56h11a13.49,13.49,0,0,1-3.82,6.23,13.61,13.61,0,1,1-2-21.52,3.73,3.73,0,0,0,4.65-.6h0a3.79,3.79,0,0,0-.69-5.87,21.22,21.22,0,1,0,10,17.69A3.51,3.51,0,0,0,174.7,22Z"/></svg>