<svg id="Layer_1" data-name="Layer 1" xmlns="http://www.w3.org/2000/svg" viewBox="0 0 97.83 120"><defs><style>.cls-1{fill:#eb008b;}.cls-2{fill:#fff;}</style></defs><title>Map_Pin_Brand_Blank</title><path d="M48.91,120l-.87-.54A136.48,136.48,0,0,1,24.09,99.58C8.33,83.18,0,65.66,0,48.91a48.92,48.92,0,0,1,97.83,0c0,16.75-8.33,34.27-24.09,50.67a136.89,136.89,0,0,1-23.95,19.88Z"/><path class="cls-1" d="M48.91,3.31a45.66,45.66,0,0,0-45.6,45.6c0,35.55,39.21,62.94,45.6,67.17,6.39-4.23,45.61-31.64,45.61-67.17A45.66,45.66,0,0,0,48.91,3.31Zm0,83.77A38.17,38.17,0,1,1,87.06,48.91,38.21,38.21,0,0,1,48.89,87.08Z"/><circle class="cls-2" cx="48.89" cy="48.91" r="34.86" transform="translate(-9.93 12.54) rotate(-13.28)"/></svg>