<svg id="Layer_1" data-name="Layer 1" xmlns="http://www.w3.org/2000/svg" viewBox="0 0 97.83 120"><defs><style>.cls-1{fill:#eb008b;}.cls-2{fill:#fff;}.cls-3{fill:#d3d4d5;}.cls-4{fill:#04e762;}.cls-5{fill:#00a1e4;}</style></defs><title>Map_Pin_Brand_Default</title><path d="M48.91,120l-.87-.54A136.48,136.48,0,0,1,24.09,99.58C8.33,83.18,0,65.66,0,48.91a48.92,48.92,0,0,1,97.83,0c0,16.75-8.33,34.27-24.09,50.67a136.89,136.89,0,0,1-23.95,19.88Z"/><path class="cls-1" d="M48.91,3.31a45.66,45.66,0,0,0-45.6,45.6c0,35.55,39.21,62.94,45.6,67.17,6.39-4.23,45.61-31.64,45.61-67.17A45.66,45.66,0,0,0,48.91,3.31Zm0,83.77A38.17,38.17,0,1,1,87.06,48.91,38.21,38.21,0,0,1,48.89,87.08Z"/><circle class="cls-2" cx="48.89" cy="48.91" r="34.86" transform="translate(-9.93 12.54) rotate(-13.28)"/><path class="cls-3" d="M54.36,76.27H43.88a7.69,7.69,0,0,1-7.67-7.63v-7H28.77a7.24,7.24,0,0,1-7.23-7.24V43.9a7.69,7.69,0,0,1,7.63-7.68h7V28.79a7.23,7.23,0,0,1,7.23-7.23H53.91a7.69,7.69,0,0,1,7.68,7.63v7H69a7.25,7.25,0,0,1,7.23,7.23V53.93a7.7,7.7,0,0,1-7.63,7.68h-7V69A7.25,7.25,0,0,1,54.36,76.27ZM37.62,60.19v8.44a6.27,6.27,0,0,0,6.26,6.22H54.36A5.82,5.82,0,0,0,60.17,69V60.19h8.44a6.27,6.27,0,0,0,6.22-6.26V43.45A5.82,5.82,0,0,0,69,37.64H60.17V29.19A6.27,6.27,0,0,0,53.91,23H43.44a5.83,5.83,0,0,0-5.82,5.82v8.85H29.18A6.28,6.28,0,0,0,23,43.9V54.37a5.83,5.83,0,0,0,5.82,5.82Z"/><path class="cls-4" d="M54.35,70.91H43.44A1.87,1.87,0,0,1,41.57,69V56.24H56.23V69A1.88,1.88,0,0,1,54.35,70.91Z"/><path class="cls-1" d="M56.23,41.58H41.57V28.79a1.87,1.87,0,0,1,1.87-1.87H54.35a1.88,1.88,0,0,1,1.88,1.87Z"/><path class="cls-5" d="M69,56.24H56.23V41.58H69a1.88,1.88,0,0,1,1.87,1.88V54.37A1.87,1.87,0,0,1,69,56.24Z"/><path class="cls-4" d="M41.57,56.24H28.78a1.87,1.87,0,0,1-1.88-1.87V43.46a1.88,1.88,0,0,1,1.88-1.88H41.57Z"/></svg>