<svg id="Layer_1" data-name="Layer 1" xmlns="http://www.w3.org/2000/svg" viewBox="0 0 97.83 120"><defs><style>.cls-1{fill:#f5b700;}.cls-2{fill:#fff;}.cls-3{fill:#f37b00;}.cls-4{fill:#eaedef;}</style></defs><title>Map_Pin_Church</title><path d="M48.91,120l-.87-.54A136.48,136.48,0,0,1,24.09,99.58C8.33,83.18,0,65.66,0,48.91a48.92,48.92,0,0,1,97.83,0c0,16.75-8.33,34.27-24.09,50.67a136.89,136.89,0,0,1-23.95,19.88Z"/><path class="cls-1" d="M48.91,3.31a45.66,45.66,0,0,0-45.6,45.6c0,35.55,39.21,62.94,45.6,67.17,6.39-4.23,45.61-31.64,45.61-67.17A45.66,45.66,0,0,0,48.91,3.31Zm0,83.77A38.17,38.17,0,1,1,87.08,48.91,38.21,38.21,0,0,1,48.91,87.08Z"/><path class="cls-2" d="M48.91,14.06A34.86,34.86,0,1,0,83.77,48.91,34.88,34.88,0,0,0,48.91,14.06ZM71.19,51.85a3.78,3.78,0,0,1-3.47.7V69.27a4,4,0,0,1-3.95,4H34.06a4,4,0,0,1-4-4V52.55a3.81,3.81,0,0,1-3.48-.7,3.85,3.85,0,0,1-1.38-3.12,3.8,3.8,0,0,1,1.62-3l19-13.19a5.29,5.29,0,0,1,.89-.47v-5.4H45a2.12,2.12,0,1,1,0-4.24H46.8V20.14a2.12,2.12,0,1,1,4.23,0v2.31h1.76a2.12,2.12,0,0,1,0,4.24H51v5.4a5.05,5.05,0,0,1,.87.46L71,45.75a3.84,3.84,0,0,1,.24,6.1Z"/><path class="cls-1" d="M37.89,53.17c-1.23,0-2.22,2.25-2.22,3.48v9.54a.51.51,0,0,0,.51.51h3.43a.51.51,0,0,0,.51-.51V56.65c0-1.23-1-3.48-2.22-3.48Z"/><path class="cls-1" d="M61.65,66.7a.51.51,0,0,0,.51-.51V56.65c0-1.23-1-3.48-2.22-3.48h0c-1.22,0-2.22,2.25-2.22,3.48v9.54a.51.51,0,0,0,.51.51Z"/><path class="cls-3" d="M70.88,48.8a2.12,2.12,0,0,0-.9-1.65L50.94,34a3.64,3.64,0,0,0-2-.62,3.69,3.69,0,0,0-2.05.63l-19,13.18A2.12,2.12,0,0,0,27,48.8a2.15,2.15,0,0,0,.78,1.74,2.19,2.19,0,0,0,2.64,0l16.9-11.83a2.87,2.87,0,0,1,3.29,0l16.9,11.83a2.2,2.2,0,0,0,2.64,0A2.15,2.15,0,0,0,70.88,48.8Z"/><path class="cls-3" d="M48.91,52.64c-2.35,0-4.27,3.8-4.27,6.16V71.51h8.55V58.8C53.19,56.44,51.27,52.64,48.91,52.64Z"/><path class="cls-1" d="M45,25.44h3v6.62a4.68,4.68,0,0,1,1.75,0V25.44h3a.87.87,0,0,0,0-1.74h-3V20.14a.88.88,0,0,0-1.75,0V23.7H45a.87.87,0,1,0,0,1.74Z"/><path class="cls-4" d="M49.77,39.86a1.52,1.52,0,0,0-1.71,0L31.81,51.24v18a2.25,2.25,0,0,0,2.25,2.24H43.5V58.64c0-3,2.43-7.4,5.41-7.4s5.42,4.42,5.42,7.4V71.51h9.44A2.25,2.25,0,0,0,66,69.27v-18Zm-8.62,26.4a1.45,1.45,0,0,1-1.45,1.45H36.09a1.45,1.45,0,0,1-1.45-1.45V56.48c0-1.8,1.45-4.58,3.25-4.58s3.26,2.78,3.26,4.58Zm7.76-16.35a3.63,3.63,0,1,1,3.64-3.63A3.63,3.63,0,0,1,48.91,49.91ZM63.19,66.26a1.45,1.45,0,0,1-1.45,1.45H58.13a1.45,1.45,0,0,1-1.45-1.45V56.48c0-1.8,1.46-4.58,3.25-4.58s3.26,2.78,3.26,4.58Z"/><circle class="cls-1" cx="48.91" cy="46.28" r="2.65"/></svg>