<svg id="Layer_1" data-name="Layer 1" xmlns="http://www.w3.org/2000/svg" viewBox="0 0 97.83 120"><defs><style>.cls-1{fill:#fff;}.cls-2{fill:#04e762;}</style></defs><title>Map_Pin_Dispensary</title><path d="M48.91,120l-.87-.54A136.48,136.48,0,0,1,24.09,99.58C8.33,83.18,0,65.65,0,48.91a48.92,48.92,0,0,1,97.83,0c0,16.74-8.33,34.27-24.09,50.67a136.89,136.89,0,0,1-23.95,19.88Z"/><path class="cls-1" d="M48.91,14.06A34.86,34.86,0,1,0,83.77,48.91,34.88,34.88,0,0,0,48.91,14.06ZM73.19,56.4a36.16,36.16,0,0,1-11.84,4,27.16,27.16,0,0,1,3.41,4,1.32,1.32,0,0,1,0,1.44,1.3,1.3,0,0,1-1.31.59,24.05,24.05,0,0,1-8.63-3.09A25.6,25.6,0,0,0,59.4,71.8l.46.55-.26.78-.89,2.23a1.31,1.31,0,0,1-1,.81h-.2a1.31,1.31,0,0,1-1-.48,34.77,34.77,0,0,1-6.2-11.92,23.14,23.14,0,0,1-7.08,7,1.3,1.3,0,0,1-1.43,0,1.32,1.32,0,0,1-.57-1.33,28.08,28.08,0,0,1,1.48-5,36.51,36.51,0,0,1-12.25,1,1.31,1.31,0,0,1-1.13-.88,1.32,1.32,0,0,1,.36-1.38,36.92,36.92,0,0,1,10-6.44c-8-3.46-14.15-11.3-15.42-13a1.31,1.31,0,0,1,1.17-2.08c1.78.16,10.07,1.13,16.94,5.05-3-10.12-.5-21.66.08-24.07a1.3,1.3,0,0,1,2.31-.48c1.5,1.95,8.41,11.48,9.81,21.92,4.69-6.33,11.84-10.54,13.39-11.41a1.33,1.33,0,0,1,1.42.09,1.3,1.3,0,0,1,.49,1.33c-.46,2.07-2.89,11.67-8.8,18.08A36.44,36.44,0,0,1,73,54a1.31,1.31,0,0,1,.21,2.38Z"/><path class="cls-2" d="M52.58,59.74a.72.72,0,0,1,.86.18c2.47,2.86,6.91,4.13,9.15,4.61a22.65,22.65,0,0,0-4.37-4.41.71.71,0,0,1,.42-1.28c5.15,0,10.37-2.31,12.67-3.47-2.51-.73-8.16-2.07-13.25-1.08a.7.7,0,0,1-.58-1.24h0C63.86,48,66.91,38.21,67.81,34.8c-2.87,1.73-9.89,6.42-13.51,12.89A.7.7,0,0,1,53,47.35c-.14-10-6.84-20.16-9.07-23.27-.78,3.75-2.81,15.81,1.16,25A.7.7,0,0,1,44,50c-5.94-4.5-14.33-6-17.66-6.39,2.2,2.76,8.94,10.46,16.84,12.52a.7.7,0,0,1,.53.69.71.71,0,0,1-.54.68c-5,1.21-9.48,4.64-11.45,6.29,2.54.12,8.11.12,12.76-1.85a.69.69,0,0,1,.8.17.71.71,0,0,1,.09.82,23.08,23.08,0,0,0-2.17,5.74c1.93-1.39,5.66-4.52,6.61-8.32a.72.72,0,0,1,.7-.54h0a.69.69,0,0,1,.68.54,35.37,35.37,0,0,0,6.16,13.64l.49-1.22a29.12,29.12,0,0,1-5.64-12.2A.71.71,0,0,1,52.58,59.74Z"/><path class="cls-2" d="M48.91,3.31a45.66,45.66,0,0,0-45.6,45.6c0,35.53,39.21,62.94,45.6,67.17,6.4-4.23,45.61-31.64,45.61-67.17A45.66,45.66,0,0,0,48.91,3.31Zm0,83.77A38.17,38.17,0,1,1,87.08,48.91,38.21,38.21,0,0,1,48.91,87.08Z"/></svg>