<svg id="Layer_1" data-name="Layer 1" xmlns="http://www.w3.org/2000/svg" viewBox="0 0 97.83 120"><defs><style>.cls-1{fill:#eb008b;}.cls-2{fill:#fff;}.cls-3{fill:#fbcca0;}.cls-4{fill:#f7e0cd;}.cls-5{fill:#c3e2f4;}.cls-6{fill:#75daf9;}.cls-7{fill:#04e762;}.cls-8{fill:#00a1e4;}</style></defs><title>Map_Pin_Retail_NUGL</title><path d="M48.91,120l-.87-.54A136.48,136.48,0,0,1,24.09,99.58C8.33,83.18,0,65.66,0,48.91a48.92,48.92,0,0,1,97.83,0c0,16.75-8.33,34.27-24.09,50.67a136.89,136.89,0,0,1-23.95,19.88Z"/><path class="cls-1" d="M48.91,3.31a45.66,45.66,0,0,0-45.6,45.6c0,35.55,39.21,62.94,45.6,67.17,6.39-4.23,45.61-31.64,45.61-67.17A45.66,45.66,0,0,0,48.91,3.31Zm0,83.77A38.17,38.17,0,1,1,87.06,48.91,38.21,38.21,0,0,1,48.89,87.08Z"/><path class="cls-2" d="M48.89,14.06A34.86,34.86,0,1,0,83.75,48.91,34.88,34.88,0,0,0,48.89,14.06ZM70.75,42.37a4.35,4.35,0,0,1-.87,2.6V65.33a4.37,4.37,0,0,1-4.37,4.37H32.42a4.37,4.37,0,0,1-4.37-4.37V45.12a4.35,4.35,0,0,1-1-2.75V32.24a4.37,4.37,0,0,1,4.37-4.37H66.38a4.37,4.37,0,0,1,4.37,4.37Z"/><path class="cls-3" d="M63.79,49.63H56.14a.7.7,0,0,0-.71.7V67.76H64.5V50.33A.7.7,0,0,0,63.79,49.63ZM57.38,61.15a1,1,0,1,1,0-1.94,1,1,0,0,1,0,1.94Z"/><path class="cls-4" d="M66.38,46.46H62.52a4.08,4.08,0,0,1-3.27-1.65A4,4,0,0,1,56,46.46H52.13a4.08,4.08,0,0,1-3.22-1.58,4.06,4.06,0,0,1-3.21,1.58H41.84a4.08,4.08,0,0,1-3.27-1.65,4,4,0,0,1-3.26,1.65H31.45A4,4,0,0,1,30,46.18V65.33a2.44,2.44,0,0,0,2.44,2.43h21.9V50.33a1.82,1.82,0,0,1,1.82-1.81h7.65a1.82,1.82,0,0,1,1.81,1.81V67.75A2.43,2.43,0,0,0,68,65.33V46.15A4.07,4.07,0,0,1,66.38,46.46ZM51.7,64.93a1.66,1.66,0,0,1-1.65,1.66H34a1.66,1.66,0,0,1-1.65-1.66V50.18A1.66,1.66,0,0,1,34,48.52H50.05a1.66,1.66,0,0,1,1.65,1.66Z"/><path class="cls-1" d="M31.45,29.8A2.44,2.44,0,0,0,29,32.24V42.37a2.44,2.44,0,0,0,2.44,2.44h3.86a2.44,2.44,0,0,0,2.44-2.44V30.63a.83.83,0,0,0-.83-.83Z"/><path class="cls-1" d="M40.23,29.8a.83.83,0,0,0-.83.83V42.37a2.44,2.44,0,0,0,2.44,2.44H45.7a2.44,2.44,0,0,0,2.44-2.44V30.63a.83.83,0,0,0-.83-.83Z"/><path class="cls-1" d="M50.52,29.8a.83.83,0,0,0-.83.83V42.37a2.44,2.44,0,0,0,2.44,2.44H56a2.44,2.44,0,0,0,2.44-2.44V30.63a.83.83,0,0,0-.83-.83Z"/><path class="cls-1" d="M60.91,29.8a.83.83,0,0,0-.83.83V42.37a2.44,2.44,0,0,0,2.44,2.44h3.86a2.44,2.44,0,0,0,2.44-2.44V32.24a2.44,2.44,0,0,0-2.44-2.44Z"/><polygon class="cls-5" points="44.29 64.84 44.29 64.84 44.29 64.84 44.29 64.84 44.29 64.84"/><path class="cls-6" d="M50.05,49.63H34a.55.55,0,0,0-.55.55V64.93a.55.55,0,0,0,.55.55H50.05a.55.55,0,0,0,.55-.55V50.18A.55.55,0,0,0,50.05,49.63Z"/><path class="cls-2" d="M46.6,54.82H44.75V53.06a1.59,1.59,0,0,0-1.59-1.58H40.77A1.49,1.49,0,0,0,39.28,53v1.85H37.52a1.6,1.6,0,0,0-1.58,1.59V58.8a1.49,1.49,0,0,0,1.49,1.49h1.85v1.76a1.6,1.6,0,0,0,1.59,1.58h2.39a1.49,1.49,0,0,0,1.49-1.49V60.29h1.76a1.6,1.6,0,0,0,1.58-1.59V56.31A1.49,1.49,0,0,0,46.6,54.82Z"/><path class="cls-7" d="M43.26,62.57H40.77a.42.42,0,0,1-.42-.43V59.23h3.34v2.91A.43.43,0,0,1,43.26,62.57Z"/><path class="cls-1" d="M43.69,55.88H40.35V53a.42.42,0,0,1,.42-.43h2.49a.43.43,0,0,1,.43.43Z"/><path class="cls-8" d="M46.61,59.23H43.69V55.88h2.92a.42.42,0,0,1,.42.43V58.8A.42.42,0,0,1,46.61,59.23Z"/><path class="cls-7" d="M40.35,59.23H37.43A.43.43,0,0,1,37,58.8V56.31a.43.43,0,0,1,.43-.43h2.92Z"/></svg>