<svg id="Layer_1" data-name="Layer 1" xmlns="http://www.w3.org/2000/svg" viewBox="0 0 97.83 120"><defs><style>.cls-1{fill:#00a1e4;}.cls-2{fill:#fff;}.cls-3{fill:#fbcca0;}.cls-4{fill:none;stroke:#231f20;stroke-miterlimit:10;stroke-width:0.75px;}.cls-5{fill:#5c2f11;}</style></defs><title>Map_Pin_Service</title><path d="M48.91,120l-.87-.54A136.48,136.48,0,0,1,24.09,99.58C8.33,83.18,0,65.66,0,48.91a48.92,48.92,0,0,1,97.83,0c0,16.75-8.33,34.27-24.09,50.67a136.89,136.89,0,0,1-23.95,19.88Z"/><path class="cls-1" d="M48.91,3.31a45.66,45.66,0,0,0-45.6,45.6c0,35.55,39.21,62.94,45.6,67.17,6.39-4.23,45.61-31.64,45.61-67.17A45.66,45.66,0,0,0,48.91,3.31Zm0,83.77A38.17,38.17,0,1,1,87.08,48.91,38.21,38.21,0,0,1,48.91,87.08Z"/><path class="cls-2" d="M48.91,14.06A34.86,34.86,0,1,0,83.77,48.91,34.88,34.88,0,0,0,48.91,14.06Zm18.2,53.87-.41,3.95H31.15l-.43-4.07a6,6,0,0,1,2.71-5.74l.17-.1,3.59-1.53,5.1-2.37V53.72L40.58,52a7.35,7.35,0,0,1-2.12-5.17v-.22a2.48,2.48,0,0,1-.58-.49c-1.17-1.26-2.47-4.86-1.24-6.64a4.44,4.44,0,0,1,.43-.51l-.2-1c-.08-.35-.15-.7-.21-1v-.06c-.55-2.83-.4-8.44,4.07-9.75,0-.05.05-.09.07-.14s.2-.35.24-.4A8.52,8.52,0,0,1,43.3,24.5c2.68-1.68,6.14-2,10.58-.88,4.76,1.18,7.57,5.69,7.15,11.51a17,17,0,0,1-.63,3.79,4.44,4.44,0,0,1,.46.56c1.24,1.78-.06,5.37-1.24,6.64a2.48,2.48,0,0,1-.58.49v.22A7.31,7.31,0,0,1,56.92,52l-1.71,1.72v4.35l5.14,2.38,3.91,1.62A6,6,0,0,1,67.11,67.93Z"/><path class="cls-3" d="M49.22,56.09h-.93a6.78,6.78,0,0,1-4.35-1.6V58.4l4.81,2.47,4.82-2.47V54.49A6.8,6.8,0,0,1,49.22,56.09Z"/><path class="cls-4" d="M48.75,64.7"/><path class="cls-4" d="M40.59,59.51"/><path class="cls-4" d="M48.75,64.7"/><path class="cls-4" d="M56.91,59.51"/><path class="cls-3" d="M58.29,40v5.14a2.79,2.79,0,0,0,.59-.78c.7-1.26,1.12-3.21.63-3.92-.18-.26-.45-.57-.76-.59A.77.77,0,0,0,58.29,40Z"/><polygon class="cls-2" points="49.65 61.75 51.94 63.33 53.51 59.77 49.65 61.75"/><polygon class="cls-2" points="43.99 59.77 45.57 63.33 47.85 61.75 43.99 59.77"/><polygon class="cls-2" points="46.96 68.12 45.8 64.62 47.37 63.54 47.96 64.23 46.96 68.12"/><polygon class="cls-2" points="49.55 64.23 50.13 63.54 51.7 64.63 50.55 68.12 49.55 64.23"/><path class="cls-3" d="M39.06,43.1v-.6c0-1.91-.46-2.48-.62-2.52h0a1.63,1.63,0,0,0-.43.44c-.49.71-.07,2.66.64,3.93a2.93,2.93,0,0,0,.58.77v-2Z"/><path class="cls-5" d="M48.75,33.3a24.85,24.85,0,0,1,5.39.59c2.47.54,3.14,4.2,3.32,6.6a2.67,2.67,0,0,1,.68-1.3,1.35,1.35,0,0,1,.39-.29A15.62,15.62,0,0,0,59.24,35c.28-3.92-1.1-8.5-5.79-9.65-3.94-1-7-.76-9.19.65a6.54,6.54,0,0,0-1.79,1.63l-.1.18a4.36,4.36,0,0,1-.31.53l-.08.13-.14.07-.31.17-.15.06c-3.57.91-3.23,5.78-3,7.29l.07.46A17.78,17.78,0,0,0,39,38.9a1.5,1.5,0,0,1,.39.29,2.76,2.76,0,0,1,.68,1.3c.17-2.4.85-6.06,3.31-6.6A24.85,24.85,0,0,1,48.75,33.3Z"/><path class="cls-3" d="M56.3,43.1v-.62c0-1.77-.28-6.95-2.42-7.42a23.72,23.72,0,0,0-10.27,0c-2.15.47-2.48,5.65-2.43,7.42l0,.62h-1v3.73a5.52,5.52,0,0,0,1.6,3.9l2.48,2.51a5.6,5.6,0,0,0,3.95,1.65h.93a5.56,5.56,0,0,0,3.94-1.65l2.48-2.51a5.48,5.48,0,0,0,1.61-3.9V43.1Z"/><path class="cls-1" d="M65.08,70.08l.25-2.35a4.23,4.23,0,0,0-2-4.12l-2.93-1.2-4,7.67Z"/><polygon class="cls-1" points="54.39 70.08 58.61 61.96 55.02 60.29 51.79 70.08 54.39 70.08"/><polygon class="cls-1" points="45.71 70.08 42.48 60.29 38.89 61.96 43.12 70.08 45.71 70.08"/><path class="cls-1" d="M32.77,70.08h8.32l-4-7.65-2.8,1.2a4.19,4.19,0,0,0-1.8,4Z"/></svg>